<svg width="68" height="68" viewBox="0 0 68 68" fill="none" xmlns="http://www.w3.org/2000/svg">
<path d="M33.9746 0C52.7383 0 67.9501 15.2109 67.9502 33.9746C67.9502 52.7384 52.7384 67.9502 33.9746 67.9502C15.2109 67.9501 0 52.7383 0 33.9746C0.000140189 15.211 15.211 0.000140198 33.9746 0ZM48.8379 42.6611C48.7577 42.5565 48.5203 42.5335 48.4443 42.665C44.7569 48.196 33.1685 62.1542 29.9531 64.2354C29.8486 64.3152 29.8351 64.6159 30.0078 64.6562C31.98 65.2726 42.4904 65.6577 47.7148 61.6006C48.4162 61.0559 48.9411 60.3177 49.2451 59.4834C50.9704 54.7476 50.9088 45.7717 48.8379 42.6611ZM6.96973 48.251C6.83942 48.2118 6.69158 48.298 6.76465 48.4619C8.16131 51.5898 13.0851 60.1735 22.0156 62.5342C23.5152 62.9305 25.1214 62.7586 26.4336 61.9316C30.2382 59.5335 34.8567 54.3977 36.7334 50.9316C36.8696 50.68 36.9658 50.2998 36.6797 50.3008C36.6491 50.3009 36.6153 50.303 36.5781 50.3076C27.6871 52.242 10.4935 50.6448 6.96973 48.251ZM49.4453 24.2656C49.1019 24.2552 49.4064 24.7833 49.5801 25.084L49.584 25.0889C52.7912 30.6419 54.0269 54.6727 53.2852 57.9795C53.2813 58.1108 53.404 58.2277 53.5439 58.1191C56.4599 56.0609 65.0931 46.6423 64.3164 36.415C64.2506 35.5487 64.0096 34.6997 63.5635 33.9541C60.6323 29.0563 53.2211 24.6258 49.4453 24.2656ZM34.1064 17.3828C25.0156 17.3829 17.6457 24.752 17.6455 33.8428C17.6455 42.9337 25.0155 50.3037 34.1064 50.3037C43.1974 50.3037 50.5674 42.9338 50.5674 33.8428C50.5672 24.752 43.1973 17.3828 34.1064 17.3828ZM9.16699 16.7969C9.1354 16.6691 8.98545 16.5894 8.87988 16.7324C6.81301 19.5326 1.74168 29.785 4.23828 40.4863C4.51578 41.6756 5.08541 42.7998 6.05078 43.5479C9.99271 46.6021 18.3333 48.6156 22.6016 47.8203C22.9372 47.7371 22.4942 47.3067 22.2451 47.0664C17.6236 42.6089 9.34703 20.1822 9.16699 16.7969ZM39.3809 3.54395C35.0018 2.3089 20.4025 2.79171 14.2617 10.1143C13.5554 10.9565 13.1294 11.9977 13.0459 13.0938C12.6797 17.9008 14.3958 25.949 16.748 29.3242C16.892 29.5309 17.0238 29.8027 17.2725 29.8418C17.576 29.8894 17.6304 29.4773 17.6895 29.1758C18.8943 23.0282 36.7849 5.87901 39.4893 3.81738C39.5771 3.7193 39.5585 3.55062 39.3809 3.54395ZM45.9502 5.63184C41.5576 5.96497 35.3048 14.0409 34.0303 16.0967C33.8829 16.3345 33.7261 16.7214 33.999 16.7822C34.0249 16.7879 34.0535 16.7897 34.084 16.7871C39.7809 16.2991 61.4606 26.0909 63.9512 28.5322C64.0608 28.605 64.2258 28.5623 64.207 28.3857C63.8245 24.8027 60.1747 10.5608 47.4785 5.91895C46.9874 5.73939 46.4716 5.59232 45.9502 5.63184Z" fill="#3A6EA5"/>
<path d="M34.1061 18.6191C42.5253 18.6191 49.3307 25.3878 49.3307 33.7119C49.3305 42.0359 42.5252 48.8037 34.1061 48.8037C25.6872 48.8035 18.8827 42.0357 18.8825 33.7119C18.8825 25.3879 25.6871 18.6194 34.1061 18.6191Z" stroke="#3A6EA5" stroke-width="3"/>
</svg>
