<svg width="216" height="85" viewBox="0 0 216 85" fill="none" xmlns="http://www.w3.org/2000/svg">
<path d="M215.495 18.1611V18.8191C214.793 18.9069 214.266 19.0933 213.916 19.3785C213.565 19.6417 213.323 20.0694 213.192 20.6616C213.082 21.2538 213.027 22.0873 213.027 23.162V41.5205C212.764 41.4985 212.49 41.4876 212.205 41.4876C211.941 41.4876 211.656 41.4985 211.349 41.5205L197.07 23.4252V36.059C197.07 37.2653 197.136 38.1975 197.268 38.8555C197.399 39.4916 197.685 39.9522 198.123 40.2374C198.584 40.5006 199.297 40.687 200.262 40.7967V41.4547C199.845 41.4108 199.297 41.3889 198.617 41.3889C197.937 41.3669 197.301 41.356 196.709 41.356C196.204 41.356 195.689 41.3669 195.162 41.3889C194.636 41.3889 194.197 41.4108 193.846 41.4547V40.7967C194.548 40.687 195.075 40.5006 195.425 40.2374C195.776 39.9742 196.007 39.5464 196.116 38.9542C196.248 38.3401 196.314 37.5066 196.314 36.4538V21.6486C196.314 20.837 196.248 20.2448 196.116 19.872C196.007 19.4772 195.765 19.2139 195.393 19.0823C195.042 18.9288 194.526 18.8411 193.846 18.8191V18.1611C194.197 18.1831 194.636 18.205 195.162 18.2269C195.689 18.2489 196.204 18.2598 196.709 18.2598C197.235 18.2598 197.739 18.2489 198.222 18.2269C198.705 18.205 199.143 18.1831 199.538 18.1611L212.27 33.8547V23.5568C212.27 22.3505 212.205 21.4292 212.073 20.7932C211.941 20.1352 211.645 19.6636 211.185 19.3785C210.746 19.0933 210.044 18.9069 209.079 18.8191V18.1611C209.496 18.1831 210.044 18.205 210.724 18.2269C211.404 18.2489 212.04 18.2598 212.632 18.2598C213.159 18.2598 213.674 18.2489 214.179 18.2269C214.705 18.205 215.144 18.1831 215.495 18.1611Z" fill="#1C1F2A"/>
<path d="M190.563 18.1611C190.475 19.1262 190.41 20.0584 190.366 20.9577C190.344 21.857 190.333 22.5479 190.333 23.0304C190.333 23.4691 190.344 23.8858 190.366 24.2806C190.388 24.6754 190.41 25.0044 190.431 25.2676H189.675C189.455 23.6665 189.115 22.4053 188.655 21.4841C188.194 20.5409 187.591 19.8829 186.845 19.5101C186.122 19.1152 185.266 18.9178 184.279 18.9178H182.93C182.294 18.9178 181.812 18.9727 181.483 19.0823C181.154 19.192 180.934 19.4114 180.825 19.7404C180.715 20.0694 180.66 20.5738 180.66 21.2538V38.362C180.66 39.042 180.715 39.5464 180.825 39.8755C180.934 40.2045 181.154 40.4238 181.483 40.5335C181.812 40.6431 182.294 40.698 182.93 40.698H184.542C185.529 40.698 186.396 40.4896 187.141 40.0729C187.909 39.6342 188.556 38.8994 189.083 37.8685C189.631 36.8376 190.048 35.4449 190.333 33.6902H191.089C191.024 34.392 190.991 35.3133 190.991 36.4538C190.991 36.9583 191.002 37.6711 191.024 38.5923C191.046 39.5135 191.111 40.4677 191.221 41.4547C190.102 41.4108 188.841 41.3889 187.438 41.3889C186.034 41.3669 184.784 41.356 183.687 41.356C183.139 41.356 182.437 41.356 181.581 41.356C180.726 41.356 179.805 41.3669 178.818 41.3889C177.831 41.3889 176.833 41.3998 175.824 41.4218C174.815 41.4218 173.861 41.4327 172.961 41.4547V40.7967C173.663 40.7528 174.19 40.6651 174.541 40.5335C174.891 40.4019 175.122 40.1387 175.231 39.7439C175.363 39.349 175.429 38.7568 175.429 37.9672V21.6486C175.429 20.837 175.363 20.2448 175.231 19.872C175.122 19.4772 174.881 19.2139 174.508 19.0823C174.157 18.9288 173.641 18.8411 172.961 18.8191V18.1611C173.861 18.1831 174.815 18.205 175.824 18.2269C176.833 18.2269 177.831 18.2379 178.818 18.2598C179.805 18.2598 180.726 18.2598 181.581 18.2598C182.437 18.2598 183.139 18.2598 183.687 18.2598C184.696 18.2598 185.836 18.2598 187.109 18.2598C188.403 18.2379 189.554 18.205 190.563 18.1611ZM185.431 29.4131C185.431 29.4131 185.431 29.5228 185.431 29.7421C185.431 29.9614 185.431 30.0711 185.431 30.0711H179.673C179.673 30.0711 179.673 29.9614 179.673 29.7421C179.673 29.5228 179.673 29.4131 179.673 29.4131H185.431ZM186.385 25.0702C186.297 26.3205 186.253 27.2746 186.253 27.9326C186.275 28.5906 186.286 29.1938 186.286 29.7421C186.286 30.2904 186.297 30.8936 186.319 31.5516C186.341 32.2096 186.396 33.1638 186.483 34.414H185.727C185.617 33.6463 185.409 32.9335 185.102 32.2754C184.816 31.6174 184.4 31.091 183.851 30.6962C183.303 30.2795 182.59 30.0711 181.713 30.0711V29.4131C182.371 29.4131 182.93 29.2815 183.391 29.0183C183.851 28.7332 184.224 28.3713 184.509 27.9326C184.816 27.472 185.058 26.9894 185.233 26.485C185.409 25.9805 185.54 25.5089 185.628 25.0702H186.385Z" fill="#1C1F2A"/>
<path d="M170.765 18.1611V18.8191C170.063 18.8411 169.537 18.9288 169.186 19.0823C168.835 19.2139 168.594 19.4772 168.462 19.872C168.352 20.2448 168.297 20.837 168.297 21.6486V37.9672C168.297 38.7568 168.352 39.349 168.462 39.7439C168.594 40.1387 168.835 40.4019 169.186 40.5335C169.537 40.6651 170.063 40.7528 170.765 40.7967V41.4547C170.151 41.4108 169.372 41.3889 168.429 41.3889C167.508 41.3669 166.565 41.356 165.6 41.356C164.547 41.356 163.56 41.3669 162.639 41.3889C161.717 41.3889 160.972 41.4108 160.401 41.4547V40.7967C161.147 40.7528 161.706 40.6651 162.079 40.5335C162.474 40.4019 162.737 40.1387 162.869 39.7439C163 39.349 163.066 38.7568 163.066 37.9672V20.1681H163.297L155.137 41.4876H154.611L145.728 20.2997V36.059C145.728 37.2653 145.793 38.1975 145.925 38.8555C146.057 39.4916 146.342 39.9522 146.781 40.2374C147.241 40.5006 147.954 40.687 148.919 40.7967V41.4547C148.502 41.4108 147.954 41.3889 147.274 41.3889C146.594 41.3669 145.958 41.356 145.366 41.356C144.861 41.356 144.346 41.3669 143.819 41.3889C143.293 41.3889 142.854 41.4108 142.503 41.4547V40.7967C143.205 40.687 143.732 40.5006 144.083 40.2374C144.434 39.9742 144.664 39.5464 144.774 38.9542C144.905 38.3401 144.971 37.5066 144.971 36.4538V21.6486C144.971 20.837 144.905 20.2448 144.774 19.872C144.664 19.4772 144.423 19.2139 144.05 19.0823C143.699 18.9288 143.183 18.8411 142.503 18.8191V18.1611C142.854 18.1831 143.293 18.205 143.819 18.2269C144.346 18.2489 144.861 18.2598 145.366 18.2598C146.309 18.2598 147.23 18.2489 148.129 18.2269C149.051 18.205 149.862 18.1831 150.564 18.1611L157.473 34.8417L156.651 35.5984L163.264 18.2598C163.637 18.2598 164.02 18.2598 164.415 18.2598C164.81 18.2598 165.205 18.2598 165.6 18.2598C166.565 18.2598 167.508 18.2489 168.429 18.2269C169.372 18.205 170.151 18.1831 170.765 18.1611Z" fill="#1C1F2A"/>
<path d="M140.745 18.1611V18.8191C140.043 18.9069 139.506 19.0933 139.133 19.3785C138.782 19.6417 138.551 20.0694 138.442 20.6616C138.332 21.2538 138.277 22.0873 138.277 23.162V31.8806C138.277 33.3063 138.179 34.6114 137.981 35.7958C137.784 36.9802 137.433 38.0001 136.928 38.8555C136.358 39.7987 135.525 40.5444 134.428 41.0928C133.331 41.6411 131.938 41.9153 130.25 41.9153C129.241 41.9153 128.21 41.7947 127.157 41.5534C126.104 41.334 125.161 40.9063 124.327 40.2703C123.626 39.6781 123.088 39.0091 122.715 38.2633C122.342 37.5176 122.09 36.6402 121.959 35.6313C121.827 34.6004 121.761 33.3831 121.761 31.9793V21.6486C121.761 20.837 121.695 20.2448 121.564 19.872C121.454 19.4772 121.224 19.2139 120.873 19.0823C120.522 18.9288 119.996 18.8411 119.294 18.8191V18.1611C119.842 18.1831 120.577 18.205 121.498 18.2269C122.441 18.2489 123.417 18.2598 124.426 18.2598C125.435 18.2598 126.4 18.2489 127.321 18.2269C128.265 18.205 129.043 18.1831 129.657 18.1611V18.8191C128.912 18.8411 128.341 18.9288 127.946 19.0823C127.574 19.2139 127.321 19.4772 127.19 19.872C127.058 20.2448 126.992 20.837 126.992 21.6486V34.0521C126.992 35.1488 127.058 36.1248 127.19 36.9802C127.343 37.8137 127.585 38.5156 127.914 39.0858C128.265 39.6342 128.736 40.0509 129.328 40.3361C129.921 40.6212 130.655 40.7638 131.533 40.7638C133.068 40.7638 134.263 40.4019 135.119 39.6781C135.996 38.9542 136.61 37.9563 136.961 36.6841C137.334 35.39 137.521 33.9095 137.521 32.2425V23.5568C137.521 22.3505 137.444 21.4292 137.29 20.7932C137.137 20.1352 136.83 19.6636 136.369 19.3785C135.93 19.0933 135.25 18.9069 134.329 18.8191V18.1611C134.746 18.1831 135.294 18.205 135.974 18.2269C136.654 18.2489 137.29 18.2598 137.882 18.2598C138.409 18.2598 138.924 18.2489 139.429 18.2269C139.955 18.205 140.394 18.1831 140.745 18.1611Z" fill="#1C1F2A"/>
<path d="M110.231 18.1611V18.8191C109.485 18.8411 108.915 18.9288 108.52 19.0823C108.147 19.2139 107.895 19.4772 107.763 19.872C107.632 20.2448 107.566 20.837 107.566 21.6486V38.362C107.566 39.042 107.61 39.5464 107.697 39.8755C107.807 40.2045 108.004 40.4238 108.29 40.5335C108.597 40.6431 109.046 40.698 109.638 40.698H111.251C111.996 40.698 112.698 40.5225 113.356 40.1716C114.014 39.8206 114.606 39.3271 115.133 38.691C115.659 38.033 116.098 37.2544 116.449 36.3551C116.8 35.4558 117.063 34.4578 117.238 33.3612H117.995C117.929 34.1069 117.897 35.072 117.897 36.2564C117.897 36.7609 117.907 37.4957 117.929 38.4607C117.951 39.4258 118.017 40.4238 118.127 41.4547C117.008 41.4108 115.747 41.3889 114.343 41.3889C112.939 41.3669 111.689 41.356 110.593 41.356C110.044 41.356 109.342 41.356 108.487 41.356C107.632 41.356 106.71 41.3669 105.723 41.3889C104.736 41.3889 103.738 41.3998 102.729 41.4218C101.72 41.4218 100.766 41.4327 99.867 41.4547V40.7967C100.569 40.7528 101.095 40.6651 101.446 40.5335C101.797 40.4019 102.028 40.1387 102.137 39.7439C102.269 39.349 102.335 38.7568 102.335 37.9672V21.6486C102.335 20.837 102.269 20.2448 102.137 19.872C102.028 19.4772 101.786 19.2139 101.413 19.0823C101.062 18.9288 100.547 18.8411 99.867 18.8191V18.1611C100.415 18.1831 101.15 18.205 102.071 18.2269C103.015 18.2489 104.012 18.2598 105.065 18.2598C106.03 18.2598 106.974 18.2489 107.895 18.2269C108.838 18.205 109.617 18.1831 110.231 18.1611Z" fill="#1C1F2A"/>
<path d="M200.976 51.6235C202.976 51.6235 204.721 52.0291 206.211 52.8402C207.72 53.6513 208.889 54.8208 209.719 56.3487C210.549 57.8577 210.964 59.6969 210.964 61.8661C210.964 63.9788 210.54 65.8273 209.691 67.4118C208.842 68.9963 207.654 70.2318 206.126 71.1184C204.617 72.0049 202.891 72.4482 200.948 72.4482C198.949 72.4482 197.194 72.0427 195.685 71.2316C194.195 70.4205 193.035 69.251 192.205 67.7231C191.375 66.1952 190.96 64.356 190.96 62.2056C190.96 60.093 191.385 58.2444 192.234 56.6599C193.101 55.0755 194.28 53.8399 195.77 52.9534C197.279 52.0668 199.015 51.6235 200.976 51.6235ZM200.863 52.1328C199.807 52.1328 198.883 52.5573 198.09 53.4061C197.317 54.2549 196.713 55.4244 196.28 56.9146C195.865 58.4048 195.657 60.1307 195.657 62.0925C195.657 64.0919 195.893 65.8368 196.364 67.3269C196.855 68.7982 197.506 69.9395 198.317 70.7506C199.147 71.5428 200.062 71.9389 201.061 71.9389C202.118 71.9389 203.033 71.5145 203.806 70.6657C204.598 69.8168 205.202 68.6473 205.617 67.1572C206.051 65.6481 206.268 63.9222 206.268 61.9793C206.268 59.961 206.022 58.2161 205.532 56.7448C205.06 55.2735 204.41 54.1417 203.58 53.3495C202.768 52.5384 201.863 52.1328 200.863 52.1328Z" fill="#1C1F2A"/>
<path d="M189.032 52.0195V52.5854C188.428 52.6043 187.966 52.6797 187.645 52.8118C187.343 52.925 187.145 53.1513 187.051 53.4908C186.957 53.8115 186.91 54.3208 186.91 55.0187V69.0528C186.91 69.7318 186.957 70.2411 187.051 70.5807C187.164 70.9202 187.372 71.1466 187.674 71.2597C187.975 71.3729 188.428 71.4484 189.032 71.4861V72.052C188.522 72.0143 187.881 71.9954 187.108 71.9954C186.334 71.9765 185.551 71.9671 184.759 71.9671C183.835 71.9671 182.977 71.9765 182.184 71.9954C181.411 71.9954 180.779 72.0143 180.289 72.052V71.4861C180.892 71.4484 181.345 71.3729 181.647 71.2597C181.949 71.1466 182.147 70.9202 182.241 70.5807C182.354 70.2411 182.411 69.7318 182.411 69.0528V55.0187C182.411 54.3208 182.354 53.8115 182.241 53.4908C182.147 53.1513 181.939 52.925 181.619 52.8118C181.317 52.6797 180.873 52.6043 180.289 52.5854V52.0195C180.779 52.0384 181.411 52.0573 182.184 52.0761C182.977 52.095 183.835 52.1044 184.759 52.1044C185.551 52.1044 186.334 52.095 187.108 52.0761C187.881 52.0573 188.522 52.0384 189.032 52.0195Z" fill="#1C1F2A"/>
<path d="M167.313 52.0195C171.029 52.0195 173.793 52.8684 175.604 54.566C177.415 56.2448 178.32 58.6593 178.32 61.8094C178.32 63.8655 177.877 65.6669 176.99 67.2136C176.104 68.7415 174.811 69.9299 173.114 70.7787C171.435 71.6276 169.417 72.052 167.059 72.052C166.757 72.052 166.361 72.0425 165.87 72.0237C165.38 72.0048 164.871 71.9954 164.343 71.9954C163.814 71.9765 163.343 71.9671 162.928 71.9671C162.098 71.9671 161.277 71.9765 160.466 71.9954C159.674 71.9954 159.042 72.0143 158.57 72.052V71.4861C159.174 71.4484 159.627 71.3729 159.929 71.2597C160.23 71.1466 160.428 70.9202 160.523 70.5807C160.636 70.2411 160.693 69.7318 160.693 69.0528V55.0187C160.693 54.3208 160.636 53.8115 160.523 53.4908C160.428 53.1513 160.221 52.925 159.9 52.8118C159.598 52.6797 159.155 52.6043 158.57 52.5854V52.0195C159.042 52.0384 159.674 52.0667 160.466 52.1044C161.277 52.1233 162.079 52.1233 162.871 52.1044C163.55 52.0856 164.314 52.0667 165.163 52.0478C166.031 52.029 166.748 52.0195 167.313 52.0195ZM167.285 52.5288C166.417 52.5288 165.852 52.6892 165.587 53.0098C165.323 53.3305 165.191 53.9813 165.191 54.9621V69.1094C165.191 70.0902 165.323 70.741 165.587 71.0617C165.87 71.3823 166.446 71.5427 167.313 71.5427C168.898 71.5427 170.143 71.1749 171.048 70.4392C171.973 69.6847 172.633 68.5906 173.029 67.157C173.425 65.7235 173.623 63.9786 173.623 61.9226C173.623 59.8099 173.406 58.0651 172.972 56.6881C172.557 55.2923 171.888 54.2548 170.963 53.5757C170.039 52.8778 168.813 52.5288 167.285 52.5288Z" fill="#1C1F2A"/>
<path d="M157.086 52.0195V52.5854C156.483 52.6609 156.021 52.8212 155.7 53.0664C155.398 53.2928 155.2 53.6606 155.106 54.1699C155.011 54.6792 154.964 55.396 154.964 56.3203V63.8183C154.964 65.0444 154.879 66.1667 154.71 67.1853C154.54 68.2039 154.238 69.0811 153.804 69.8167C153.314 70.6278 152.597 71.2692 151.654 71.7407C150.711 72.2123 149.513 72.4481 148.06 72.4481C147.193 72.4481 146.306 72.3444 145.401 72.1369C144.495 71.9482 143.684 71.5804 142.967 71.0334C142.364 70.5241 141.902 69.9488 141.581 69.3074C141.26 68.6661 141.043 67.9116 140.93 67.0439C140.817 66.1573 140.76 65.1104 140.76 63.9032V55.0187C140.76 54.3208 140.704 53.8115 140.591 53.4908C140.496 53.1513 140.298 52.925 139.996 52.8118C139.695 52.6797 139.242 52.6043 138.638 52.5854V52.0195C139.11 52.0384 139.742 52.0573 140.534 52.0761C141.345 52.095 142.185 52.1044 143.052 52.1044C143.92 52.1044 144.75 52.095 145.542 52.0761C146.353 52.0573 147.023 52.0384 147.551 52.0195V52.5854C146.91 52.6043 146.419 52.6797 146.08 52.8118C145.759 52.925 145.542 53.1513 145.429 53.4908C145.316 53.8115 145.259 54.3208 145.259 55.0187V65.6857C145.259 66.6289 145.316 67.4683 145.429 68.2039C145.561 68.9207 145.769 69.5243 146.052 70.0148C146.353 70.4864 146.759 70.8448 147.268 71.09C147.777 71.3352 148.409 71.4578 149.164 71.4578C150.484 71.4578 151.512 71.1466 152.248 70.5241C153.002 69.9016 153.531 69.0433 153.832 67.9493C154.153 66.8364 154.313 65.5631 154.313 64.1295V56.6598C154.313 55.6224 154.247 54.8301 154.115 54.2831C153.983 53.7172 153.719 53.3116 153.323 53.0664C152.946 52.8212 152.361 52.6609 151.569 52.5854V52.0195C151.927 52.0384 152.399 52.0573 152.984 52.0761C153.568 52.095 154.115 52.1044 154.625 52.1044C155.077 52.1044 155.521 52.095 155.955 52.0761C156.407 52.0573 156.785 52.0384 157.086 52.0195Z" fill="#1C1F2A"/>
<path d="M137.366 52.0195C137.291 52.9815 137.234 53.9058 137.196 54.7924C137.177 55.6789 137.168 56.358 137.168 56.8296C137.168 57.2446 137.177 57.6407 137.196 58.0179C137.215 58.3952 137.234 58.7159 137.253 58.98H136.602C136.3 57.3955 135.914 56.1411 135.442 55.2168C134.989 54.2925 134.442 53.6417 133.801 53.2645C133.16 52.8684 132.405 52.6703 131.537 52.6703H130.887V68.8264C130.887 69.5809 130.962 70.1468 131.113 70.5241C131.283 70.9013 131.584 71.156 132.018 71.288C132.452 71.4012 133.084 71.4672 133.914 71.4861V72.052C133.329 72.0331 132.546 72.0143 131.566 71.9954C130.604 71.9765 129.594 71.9671 128.538 71.9671C127.501 71.9671 126.52 71.9765 125.595 71.9954C124.671 72.0143 123.926 72.0331 123.36 72.052V71.4861C124.209 71.4672 124.85 71.4012 125.284 71.288C125.718 71.156 126.01 70.9013 126.161 70.5241C126.312 70.1468 126.388 69.5809 126.388 68.8264V52.6703H125.765C124.898 52.6703 124.143 52.8684 123.502 53.2645C122.86 53.6417 122.313 54.2925 121.861 55.2168C121.408 56.1222 121.012 57.3766 120.672 58.98H120.021C120.059 58.7159 120.078 58.3952 120.078 58.0179C120.097 57.6407 120.106 57.2446 120.106 56.8296C120.106 56.358 120.088 55.6789 120.05 54.7924C120.031 53.9058 119.984 52.9815 119.908 52.0195C120.776 52.0384 121.719 52.0573 122.738 52.0761C123.775 52.095 124.813 52.1044 125.85 52.1044C126.888 52.1044 127.821 52.1044 128.651 52.1044C129.5 52.1044 130.434 52.1044 131.452 52.1044C132.49 52.1044 133.527 52.095 134.565 52.0761C135.602 52.0573 136.536 52.0384 137.366 52.0195Z" fill="#1C1F2A"/>
<path d="M110.713 51.6519C111.826 51.6519 112.684 51.7745 113.288 52.0197C113.891 52.246 114.41 52.4913 114.844 52.7553C115.07 52.8874 115.25 52.9911 115.382 53.0666C115.533 53.1232 115.674 53.1515 115.806 53.1515C115.995 53.1515 116.127 53.0477 116.202 52.8402C116.297 52.6327 116.372 52.3215 116.429 51.9065H117.079C117.06 52.2649 117.032 52.6987 116.994 53.208C116.976 53.6985 116.957 54.3493 116.938 55.1604C116.938 55.9715 116.938 57.0372 116.938 58.3576H116.287C116.212 57.3768 115.985 56.4242 115.608 55.4999C115.231 54.5756 114.693 53.8211 113.995 53.2363C113.316 52.6327 112.477 52.3309 111.477 52.3309C110.572 52.3309 109.827 52.5856 109.242 53.0949C108.657 53.6042 108.365 54.3115 108.365 55.217C108.365 55.9715 108.553 56.6222 108.931 57.1693C109.308 57.6974 109.855 58.2162 110.572 58.7255C111.307 59.2348 112.194 59.8478 113.231 60.5646C114.137 61.1493 114.948 61.7341 115.665 62.3189C116.381 62.9036 116.957 63.5638 117.391 64.2995C117.824 65.0351 118.041 65.9122 118.041 66.9308C118.041 68.1758 117.711 69.2038 117.051 70.0149C116.41 70.826 115.561 71.4391 114.505 71.8541C113.448 72.2502 112.288 72.4483 111.024 72.4483C109.855 72.4483 108.921 72.3351 108.223 72.1087C107.525 71.8824 106.94 71.6466 106.469 71.4014C106.054 71.1373 105.733 71.0052 105.507 71.0052C105.318 71.0052 105.177 71.109 105.082 71.3165C105.007 71.524 104.941 71.8352 104.884 72.2502H104.234C104.271 71.7975 104.29 71.2693 104.29 70.6657C104.309 70.0621 104.319 69.2793 104.319 68.3173C104.337 67.3364 104.347 66.1009 104.347 64.6107H104.998C105.073 65.8557 105.281 67.0252 105.62 68.1192C105.978 69.1944 106.516 70.0621 107.233 70.7223C107.969 71.3825 108.94 71.7126 110.147 71.7126C110.807 71.7126 111.392 71.5994 111.901 71.3731C112.43 71.1278 112.854 70.7695 113.175 70.2979C113.495 69.8263 113.656 69.2416 113.656 68.5436C113.656 67.7514 113.467 67.0629 113.09 66.4781C112.731 65.8934 112.232 65.3464 111.59 64.8371C110.968 64.3278 110.242 63.809 109.412 63.2809C108.525 62.6961 107.695 62.1114 106.922 61.5266C106.148 60.9419 105.526 60.2722 105.054 59.5177C104.601 58.7632 104.375 57.8672 104.375 56.8297C104.375 55.6414 104.668 54.6699 105.252 53.9154C105.856 53.142 106.639 52.5761 107.601 52.2177C108.582 51.8405 109.619 51.6519 110.713 51.6519Z" fill="#1C1F2A"/>
<path d="M42.4414 0C65.8812 0 84.8827 19.0016 84.8828 42.4414C84.8828 65.8813 65.8813 84.8828 42.4414 84.8828C19.0016 84.8827 0 65.8812 0 42.4414C0.000119574 19.0017 19.0017 0.000119589 42.4414 0ZM61.0088 53.293C60.9089 53.1619 60.6116 53.1324 60.5166 53.2969C55.9103 60.2062 41.4347 77.6434 37.418 80.2432C37.2873 80.3429 37.2702 80.7184 37.4863 80.7686C39.9833 81.5489 53.4368 82.0331 59.8672 76.7432C60.5529 76.179 61.0764 75.4463 61.3994 74.6191C63.6744 68.7944 63.6419 57.2484 61.0088 53.293ZM8.70703 60.2744C8.54419 60.2254 8.35872 60.3342 8.4502 60.5391C10.2247 64.5129 16.5561 75.5354 28.0742 78.2617C29.5836 78.619 31.1811 78.4564 32.5186 77.6709C37.3944 74.8071 43.5477 68.0106 45.9395 63.5273C46.0741 63.2749 46.2091 62.8898 45.9268 62.8438C45.8651 62.8337 45.7882 62.8329 45.6934 62.8447C34.5866 65.2611 13.1089 63.2648 8.70703 60.2744ZM61.7217 30.3135C61.3223 30.356 61.7127 30.9524 61.916 31.2988C65.9407 38.1552 67.4929 68.2884 66.5645 72.4277C66.5596 72.5919 66.7126 72.7378 66.8877 72.6016C70.5614 70.0085 81.499 58.0644 80.3174 45.1631C80.2381 44.2978 79.9968 43.4517 79.5674 42.6963C76.0259 36.4673 66.5565 30.7694 61.7676 30.3125C61.7523 30.312 61.7369 30.3119 61.7217 30.3135ZM42.6064 21.7139C31.2499 21.7139 22.043 30.9208 22.043 42.2773C22.0432 53.6337 31.2501 62.8398 42.6064 62.8398C53.9627 62.8397 63.1687 53.6336 63.1689 42.2773C63.1689 30.9209 53.9628 21.714 42.6064 21.7139ZM11.4521 20.9814C11.4125 20.822 11.2246 20.7228 11.0928 20.9014C8.48214 24.438 2.03385 37.4934 5.40234 51.0225C5.6974 52.2075 6.26398 53.3284 7.20117 54.1113C11.9608 58.0868 22.7695 60.7556 28.2344 59.7373C28.2491 59.7336 28.2642 59.7283 28.2783 59.7227C28.6503 59.5735 28.1141 59.1049 27.8232 58.8281C22.0567 53.3393 11.6769 25.2177 11.4521 20.9814ZM49.1953 4.42676C43.6621 2.86599 25.0633 3.50115 17.5537 12.9551C16.8701 13.8157 16.442 14.8516 16.333 15.9453C15.7405 21.8919 17.9153 32.3167 20.9219 36.6309C21.1018 36.8891 21.2662 37.2296 21.5771 37.2783C21.9562 37.3376 22.0238 36.8229 22.0977 36.4463C23.6029 28.7665 45.954 7.3427 49.3311 4.76855C49.4407 4.64604 49.4171 4.43515 49.1953 4.42676ZM57.5967 7.02539C52.0365 7.21255 43.9338 17.7533 42.457 20.1963C42.3123 20.4357 42.1381 20.7759 42.375 20.9248C42.4289 20.9586 42.4968 20.9775 42.5771 20.9707C49.6932 20.3604 76.7787 32.5933 79.8887 35.6426C80.0257 35.7336 80.2316 35.6798 80.208 35.459C79.7282 30.9655 75.1356 13.0549 59.127 7.32715C58.6344 7.15094 58.1195 7.00784 57.5967 7.02539Z" fill="#1C1F2A"/>
<path d="M42.6059 22.8853C53.3269 22.8853 61.9975 31.505 61.9975 42.1128C61.9974 52.7205 53.3269 61.3403 42.6059 61.3403C31.8851 61.3402 23.2145 52.7204 23.2143 42.1128C23.2143 31.5051 31.885 22.8854 42.6059 22.8853Z" stroke="#1C1F2A" stroke-width="3"/>
</svg>
