<svg width="173" height="68" viewBox="0 0 173 68" fill="none" xmlns="http://www.w3.org/2000/svg">
<path d="M172.505 14.5381V15.0648C171.943 15.1351 171.522 15.2843 171.241 15.5126C170.96 15.7233 170.767 16.0657 170.662 16.5397C170.574 17.0138 170.53 17.681 170.53 18.5413V33.2374C170.319 33.2199 170.1 33.2111 169.872 33.2111C169.661 33.2111 169.433 33.2199 169.187 33.2374L157.757 18.752V28.8655C157.757 29.8312 157.809 30.5774 157.915 31.1041C158.02 31.6133 158.248 31.982 158.599 32.2103C158.968 32.421 159.539 32.5702 160.311 32.658V33.1848C159.978 33.1497 159.539 33.1321 158.994 33.1321C158.45 33.1145 157.941 33.1058 157.467 33.1058C157.063 33.1058 156.65 33.1145 156.229 33.1321C155.808 33.1321 155.456 33.1497 155.175 33.1848V32.658C155.737 32.5702 156.159 32.421 156.44 32.2103C156.721 31.9996 156.905 31.6572 156.993 31.1832C157.098 30.6915 157.151 30.0243 157.151 29.1815V17.3298C157.151 16.6802 157.098 16.2061 156.993 15.9076C156.905 15.5916 156.712 15.3809 156.413 15.2755C156.132 15.1526 155.72 15.0824 155.175 15.0648V14.5381C155.456 14.5557 155.808 14.5732 156.229 14.5908C156.65 14.6083 157.063 14.6171 157.467 14.6171C157.888 14.6171 158.292 14.6083 158.678 14.5908C159.065 14.5732 159.416 14.5557 159.732 14.5381L169.924 27.1009V18.8574C169.924 17.8917 169.872 17.1543 169.766 16.6451C169.661 16.1183 169.424 15.7408 169.055 15.5126C168.704 15.2843 168.142 15.1351 167.37 15.0648V14.5381C167.703 14.5557 168.142 14.5732 168.686 14.5908C169.231 14.6083 169.74 14.6171 170.214 14.6171C170.635 14.6171 171.048 14.6083 171.452 14.5908C171.873 14.5732 172.224 14.5557 172.505 14.5381Z" fill="#FAFAFA"/>
<path d="M152.547 14.5381C152.477 15.3107 152.424 16.0569 152.389 16.7768C152.372 17.4966 152.363 18.0497 152.363 18.436C152.363 18.7872 152.372 19.1208 152.389 19.4368C152.407 19.7528 152.424 20.0162 152.442 20.2269H151.836C151.661 18.9452 151.388 17.9356 151.02 17.1981C150.651 16.4432 150.168 15.9164 149.571 15.6179C148.992 15.3019 148.307 15.1439 147.517 15.1439H146.437C145.928 15.1439 145.542 15.1877 145.278 15.2755C145.015 15.3633 144.839 15.5389 144.752 15.8023C144.664 16.0657 144.62 16.4695 144.62 17.0138V30.7091C144.62 31.2534 144.664 31.6572 144.752 31.9206C144.839 32.184 145.015 32.3595 145.278 32.4473C145.542 32.5351 145.928 32.579 146.437 32.579H147.728C148.518 32.579 149.211 32.4122 149.808 32.0786C150.423 31.7275 150.941 31.1393 151.362 30.314C151.801 29.4888 152.135 28.3739 152.363 26.9692H152.969C152.916 27.5311 152.89 28.2685 152.89 29.1815C152.89 29.5854 152.898 30.156 152.916 30.8934C152.934 31.6309 152.986 32.3947 153.074 33.1848C152.179 33.1497 151.169 33.1321 150.045 33.1321C148.922 33.1145 147.921 33.1058 147.043 33.1058C146.604 33.1058 146.042 33.1058 145.357 33.1058C144.673 33.1058 143.935 33.1145 143.145 33.1321C142.355 33.1321 141.556 33.1409 140.748 33.1584C139.941 33.1584 139.177 33.1672 138.457 33.1848V32.658C139.019 32.6229 139.44 32.5527 139.721 32.4473C140.002 32.342 140.186 32.1313 140.274 31.8152C140.38 31.4992 140.432 31.0251 140.432 30.393V17.3298C140.432 16.6802 140.38 16.2061 140.274 15.9076C140.186 15.5916 139.993 15.3809 139.695 15.2755C139.414 15.1526 139.001 15.0824 138.457 15.0648V14.5381C139.177 14.5557 139.941 14.5732 140.748 14.5908C141.556 14.5908 142.355 14.5996 143.145 14.6171C143.935 14.6171 144.673 14.6171 145.357 14.6171C146.042 14.6171 146.604 14.6171 147.043 14.6171C147.851 14.6171 148.764 14.6171 149.782 14.6171C150.818 14.5996 151.74 14.5732 152.547 14.5381ZM148.439 23.5454C148.439 23.5454 148.439 23.6332 148.439 23.8088C148.439 23.9843 148.439 24.0721 148.439 24.0721H143.83C143.83 24.0721 143.83 23.9843 143.83 23.8088C143.83 23.6332 143.83 23.5454 143.83 23.5454H148.439ZM149.202 20.0689C149.132 21.0697 149.097 21.8335 149.097 22.3602C149.115 22.887 149.123 23.3698 149.123 23.8088C149.123 24.2477 149.132 24.7306 149.15 25.2573C149.167 25.784 149.211 26.5478 149.281 27.5486H148.676C148.588 26.9341 148.421 26.3635 148.175 25.8367C147.947 25.31 147.613 24.8886 147.175 24.5725C146.736 24.2389 146.165 24.0721 145.463 24.0721V23.5454C145.989 23.5454 146.437 23.44 146.806 23.2293C147.175 23.0011 147.473 22.7114 147.701 22.3602C147.947 21.9915 148.14 21.6052 148.281 21.2014C148.421 20.7976 148.526 20.4201 148.597 20.0689H149.202Z" fill="#FAFAFA"/>
<path d="M136.699 14.5381V15.0648C136.137 15.0824 135.715 15.1526 135.435 15.2755C135.154 15.3809 134.96 15.5916 134.855 15.9076C134.767 16.2061 134.723 16.6802 134.723 17.3298V30.393C134.723 31.0251 134.767 31.4992 134.855 31.8152C134.96 32.1313 135.154 32.342 135.435 32.4473C135.715 32.5527 136.137 32.6229 136.699 32.658V33.1848C136.207 33.1497 135.584 33.1321 134.829 33.1321C134.091 33.1145 133.336 33.1058 132.564 33.1058C131.721 33.1058 130.931 33.1145 130.193 33.1321C129.456 33.1321 128.859 33.1497 128.403 33.1848V32.658C129 32.6229 129.447 32.5527 129.746 32.4473C130.062 32.342 130.272 32.1313 130.378 31.8152C130.483 31.4992 130.536 31.0251 130.536 30.393V16.1447H130.72L124.189 33.2111H123.767L116.656 16.25V28.8655C116.656 29.8312 116.709 30.5774 116.814 31.1041C116.92 31.6133 117.148 31.982 117.499 32.2103C117.868 32.421 118.438 32.5702 119.211 32.658V33.1848C118.877 33.1497 118.438 33.1321 117.894 33.1321C117.35 33.1145 116.841 33.1058 116.366 33.1058C115.963 33.1058 115.55 33.1145 115.129 33.1321C114.707 33.1321 114.356 33.1497 114.075 33.1848V32.658C114.637 32.5702 115.058 32.421 115.339 32.2103C115.62 31.9996 115.805 31.6572 115.892 31.1832C115.998 30.6915 116.05 30.0243 116.05 29.1815V17.3298C116.05 16.6802 115.998 16.2061 115.892 15.9076C115.805 15.5916 115.611 15.3809 115.313 15.2755C115.032 15.1526 114.619 15.0824 114.075 15.0648V14.5381C114.356 14.5557 114.707 14.5732 115.129 14.5908C115.55 14.6083 115.963 14.6171 116.366 14.6171C117.121 14.6171 117.859 14.6083 118.579 14.5908C119.316 14.5732 119.966 14.5557 120.528 14.5381L126.059 27.891L125.4 28.4968L130.694 14.6171C130.992 14.6171 131.3 14.6171 131.616 14.6171C131.932 14.6171 132.248 14.6171 132.564 14.6171C133.336 14.6171 134.091 14.6083 134.829 14.5908C135.584 14.5732 136.207 14.5557 136.699 14.5381Z" fill="#FAFAFA"/>
<path d="M112.667 14.5381V15.0648C112.105 15.1351 111.675 15.2843 111.377 15.5126C111.096 15.7233 110.912 16.0657 110.824 16.5397C110.736 17.0138 110.692 17.681 110.692 18.5413V25.5207C110.692 26.662 110.613 27.7067 110.455 28.6548C110.297 29.6029 110.016 30.4194 109.612 31.1041C109.156 31.8591 108.489 32.4561 107.611 32.8951C106.733 33.334 105.618 33.5535 104.266 33.5535C103.458 33.5535 102.633 33.4569 101.79 33.2638C100.947 33.0882 100.192 32.7458 99.5251 32.2366C98.9633 31.7626 98.5331 31.2271 98.2346 30.6301C97.9361 30.0331 97.7342 29.3308 97.6288 28.5231C97.5235 27.6979 97.4708 26.7234 97.4708 25.5997V17.3298C97.4708 16.6802 97.4182 16.2061 97.3128 15.9076C97.225 15.5916 97.0407 15.3809 96.7597 15.2755C96.4788 15.1526 96.0574 15.0824 95.4955 15.0648V14.5381C95.9345 14.5557 96.5227 14.5732 97.2601 14.5908C98.0151 14.6083 98.7965 14.6171 99.6041 14.6171C100.412 14.6171 101.184 14.6083 101.922 14.5908C102.677 14.5732 103.3 14.5557 103.792 14.5381V15.0648C103.195 15.0824 102.738 15.1526 102.422 15.2755C102.124 15.3809 101.922 15.5916 101.816 15.9076C101.711 16.2061 101.658 16.6802 101.658 17.3298V27.2589C101.658 28.1368 101.711 28.9182 101.816 29.6029C101.939 30.2701 102.132 30.832 102.396 31.2885C102.677 31.7275 103.054 32.0611 103.528 32.2893C104.002 32.5176 104.591 32.6317 105.293 32.6317C106.522 32.6317 107.479 32.342 108.164 31.7626C108.866 31.1832 109.358 30.3843 109.639 29.3659C109.937 28.33 110.086 27.1448 110.086 25.8104V18.8574C110.086 17.8917 110.025 17.1543 109.902 16.6451C109.779 16.1183 109.533 15.7408 109.165 15.5126C108.813 15.2843 108.269 15.1351 107.532 15.0648V14.5381C107.865 14.5557 108.304 14.5732 108.848 14.5908C109.393 14.6083 109.902 14.6171 110.376 14.6171C110.797 14.6171 111.21 14.6083 111.614 14.5908C112.035 14.5732 112.386 14.5557 112.667 14.5381Z" fill="#FAFAFA"/>
<path d="M88.2406 14.5381V15.0648C87.6436 15.0824 87.1871 15.1526 86.8711 15.2755C86.5726 15.3809 86.3707 15.5916 86.2653 15.9076C86.16 16.2061 86.1073 16.6802 86.1073 17.3298V30.7091C86.1073 31.2534 86.1424 31.6572 86.2126 31.9206C86.3004 32.1839 86.4584 32.3595 86.6867 32.4473C86.9325 32.5351 87.2925 32.579 87.7665 32.579H89.057C89.654 32.579 90.2159 32.4385 90.7426 32.1576C91.2694 31.8767 91.7434 31.4816 92.1648 30.9724C92.5862 30.4457 92.9374 29.8224 93.2183 29.1025C93.4992 28.3826 93.7099 27.5837 93.8504 26.7058H94.4561C94.4035 27.3028 94.3771 28.0753 94.3771 29.0235C94.3771 29.4273 94.3859 30.0155 94.4035 30.7881C94.421 31.5606 94.4737 32.3595 94.5615 33.1847C93.666 33.1496 92.6564 33.1321 91.5327 33.1321C90.409 33.1145 89.4082 33.1057 88.5303 33.1057C88.0913 33.1057 87.5295 33.1057 86.8447 33.1057C86.16 33.1057 85.4225 33.1145 84.6324 33.1321C83.8423 33.1321 83.0434 33.1409 82.2357 33.1584C81.4281 33.1584 80.6643 33.1672 79.9444 33.1847V32.658C80.5063 32.6229 80.9276 32.5527 81.2086 32.4473C81.4895 32.342 81.6739 32.1313 81.7617 31.8152C81.867 31.4992 81.9197 31.0251 81.9197 30.393V17.3298C81.9197 16.6802 81.867 16.2061 81.7617 15.9076C81.6739 15.5916 81.4807 15.3809 81.1822 15.2755C80.9013 15.1526 80.4887 15.0824 79.9444 15.0648V14.5381C80.3833 14.5556 80.9715 14.5732 81.709 14.5907C82.464 14.6083 83.2629 14.6171 84.1057 14.6171C84.8782 14.6171 85.6332 14.6083 86.3707 14.5907C87.1256 14.5732 87.749 14.5556 88.2406 14.5381Z" fill="#FAFAFA"/>
<path d="M160.883 41.3251C162.484 41.3251 163.881 41.6497 165.074 42.299C166.282 42.9483 167.218 43.8845 167.882 45.1076C168.547 46.3156 168.879 47.7878 168.879 49.5243C168.879 51.2155 168.539 52.6953 167.859 53.9637C167.18 55.2321 166.229 56.2212 165.006 56.9309C163.798 57.6406 162.416 57.9954 160.861 57.9954C159.26 57.9954 157.856 57.6708 156.648 57.0215C155.455 56.3722 154.526 55.436 153.862 54.2129C153.197 52.9898 152.865 51.5175 152.865 49.7961C152.865 48.1049 153.205 46.6251 153.884 45.3568C154.579 44.0884 155.523 43.0993 156.716 42.3896C157.924 41.6799 159.313 41.3251 160.883 41.3251ZM160.793 41.7328C159.947 41.7328 159.207 42.0725 158.573 42.752C157.954 43.4315 157.471 44.3677 157.123 45.5606C156.791 46.7535 156.625 48.1351 156.625 49.7055C156.625 51.3061 156.814 52.7029 157.191 53.8958C157.584 55.0736 158.105 55.9871 158.754 56.6364C159.419 57.2706 160.151 57.5877 160.951 57.5877C161.797 57.5877 162.529 57.248 163.148 56.5685C163.782 55.889 164.266 54.9528 164.598 53.7599C164.945 52.5519 165.119 51.1702 165.119 49.6149C165.119 47.9992 164.923 46.6025 164.53 45.4247C164.152 44.2469 163.631 43.3409 162.967 42.7067C162.318 42.0574 161.593 41.7328 160.793 41.7328Z" fill="#FAFAFA"/>
<path d="M151.321 41.6422V42.0952C150.838 42.1103 150.468 42.1707 150.212 42.2764C149.97 42.367 149.811 42.5482 149.736 42.82C149.66 43.0767 149.623 43.4844 149.623 44.043V55.2774C149.623 55.821 149.66 56.2287 149.736 56.5005C149.826 56.7723 149.993 56.9535 150.234 57.0441C150.476 57.1347 150.838 57.1951 151.321 57.2253V57.6783C150.914 57.6481 150.4 57.633 149.781 57.633C149.162 57.6179 148.535 57.6103 147.901 57.6103C147.161 57.6103 146.474 57.6179 145.84 57.633C145.221 57.633 144.715 57.6481 144.323 57.6783V57.2253C144.806 57.1951 145.168 57.1347 145.41 57.0441C145.651 56.9535 145.81 56.7723 145.885 56.5005C145.976 56.2287 146.021 55.821 146.021 55.2774V44.043C146.021 43.4844 145.976 43.0767 145.885 42.82C145.81 42.5482 145.644 42.367 145.387 42.2764C145.145 42.1707 144.791 42.1103 144.323 42.0952V41.6422C144.715 41.6573 145.221 41.6724 145.84 41.6875C146.474 41.7026 147.161 41.7101 147.901 41.7101C148.535 41.7101 149.162 41.7026 149.781 41.6875C150.4 41.6724 150.914 41.6573 151.321 41.6422Z" fill="#FAFAFA"/>
<path d="M133.936 41.6422C136.91 41.6422 139.123 42.3217 140.572 43.6807C142.022 45.0245 142.747 46.9573 142.747 49.479C142.747 51.1249 142.392 52.567 141.682 53.8052C140.972 55.0283 139.938 55.9796 138.579 56.6591C137.235 57.3385 135.619 57.6783 133.732 57.6783C133.49 57.6783 133.173 57.6707 132.781 57.6556C132.388 57.6405 131.98 57.633 131.558 57.633C131.135 57.6179 130.757 57.6103 130.425 57.6103C129.761 57.6103 129.104 57.6179 128.454 57.633C127.82 57.633 127.314 57.6481 126.937 57.6783V57.2253C127.42 57.1951 127.783 57.1347 128.024 57.0441C128.266 56.9535 128.424 56.7723 128.5 56.5005C128.59 56.2287 128.636 55.821 128.636 55.2774V44.043C128.636 43.4844 128.59 43.0767 128.5 42.82C128.424 42.5482 128.258 42.367 128.001 42.2764C127.76 42.1707 127.405 42.1103 126.937 42.0952V41.6422C127.314 41.6573 127.82 41.6799 128.454 41.7101C129.104 41.7252 129.746 41.7252 130.38 41.7101C130.923 41.695 131.535 41.6799 132.214 41.6648C132.909 41.6497 133.483 41.6422 133.936 41.6422ZM133.913 42.0499C133.219 42.0499 132.766 42.1782 132.554 42.4349C132.343 42.6916 132.237 43.2126 132.237 43.9977V55.3227C132.237 56.1079 132.343 56.6289 132.554 56.8855C132.781 57.1422 133.241 57.2706 133.936 57.2706C135.204 57.2706 136.201 56.9761 136.926 56.3873C137.665 55.7833 138.194 54.9075 138.511 53.7599C138.828 52.6123 138.987 51.2155 138.987 49.5696C138.987 47.8784 138.813 46.4817 138.466 45.3794C138.134 44.262 137.598 43.4315 136.858 42.8879C136.118 42.3292 135.136 42.0499 133.913 42.0499Z" fill="#FAFAFA"/>
<path d="M125.749 41.6422V42.0952C125.266 42.1556 124.896 42.2839 124.639 42.4802C124.397 42.6614 124.239 42.9559 124.163 43.3636C124.088 43.7713 124.05 44.345 124.05 45.0849V51.0872C124.05 52.0687 123.982 52.9671 123.846 53.7825C123.71 54.5979 123.469 55.3001 123.121 55.889C122.729 56.5383 122.155 57.0517 121.4 57.4291C120.645 57.8066 119.686 57.9954 118.524 57.9954C117.829 57.9954 117.119 57.9123 116.394 57.7462C115.67 57.5952 115.02 57.3008 114.447 56.8629C113.963 56.4552 113.593 55.9947 113.337 55.4813C113.08 54.9679 112.906 54.3639 112.816 53.6693C112.725 52.9596 112.68 52.1215 112.68 51.1551V44.043C112.68 43.4844 112.635 43.0767 112.544 42.82C112.468 42.5482 112.31 42.367 112.068 42.2764C111.827 42.1707 111.464 42.1103 110.981 42.0952V41.6422C111.359 41.6573 111.864 41.6724 112.499 41.6875C113.148 41.7026 113.82 41.7101 114.515 41.7101C115.209 41.7101 115.874 41.7026 116.508 41.6875C117.157 41.6724 117.693 41.6573 118.116 41.6422V42.0952C117.602 42.1103 117.21 42.1707 116.938 42.2764C116.681 42.367 116.508 42.5482 116.417 42.82C116.327 43.0767 116.281 43.4844 116.281 44.043V52.5821C116.281 53.3371 116.327 54.009 116.417 54.5979C116.523 55.1717 116.689 55.6549 116.915 56.0475C117.157 56.425 117.482 56.7119 117.889 56.9082C118.297 57.1045 118.803 57.2027 119.407 57.2027C120.464 57.2027 121.287 56.9535 121.876 56.4552C122.48 55.9569 122.903 55.2699 123.144 54.3941C123.401 53.5032 123.529 52.4839 123.529 51.3363V45.3567C123.529 44.5262 123.476 43.892 123.371 43.4542C123.265 43.0012 123.054 42.6765 122.736 42.4802C122.434 42.2839 121.966 42.1556 121.332 42.0952V41.6422C121.619 41.6573 121.997 41.6724 122.465 41.6875C122.933 41.7026 123.371 41.7101 123.778 41.7101C124.141 41.7101 124.496 41.7026 124.843 41.6875C125.205 41.6724 125.507 41.6573 125.749 41.6422Z" fill="#FAFAFA"/>
<path d="M109.963 41.6422C109.902 42.4123 109.857 43.1522 109.827 43.8618C109.812 44.5715 109.804 45.1151 109.804 45.4926C109.804 45.8248 109.812 46.1419 109.827 46.4439C109.842 46.7459 109.857 47.0026 109.872 47.214H109.351C109.109 45.9456 108.8 44.9415 108.422 44.2016C108.06 43.4617 107.622 42.9408 107.109 42.6388C106.595 42.3217 105.991 42.1631 105.297 42.1631H104.776V55.0962C104.776 55.7002 104.836 56.1532 104.957 56.4552C105.093 56.7572 105.334 56.9611 105.682 57.0667C106.029 57.1573 106.535 57.2102 107.199 57.2253V57.6783C106.731 57.6632 106.105 57.6481 105.319 57.633C104.549 57.6179 103.741 57.6103 102.896 57.6103C102.065 57.6103 101.28 57.6179 100.54 57.633C99.8003 57.6481 99.2039 57.6632 98.7509 57.6783V57.2253C99.4304 57.2102 99.9438 57.1573 100.291 57.0667C100.638 56.9611 100.872 56.7572 100.993 56.4552C101.114 56.1532 101.174 55.7002 101.174 55.0962V42.1631H100.676C99.9815 42.1631 99.3775 42.3217 98.8641 42.6388C98.3507 42.9408 97.9128 43.4617 97.5504 44.2016C97.188 44.9264 96.8709 45.9305 96.5991 47.214H96.0782C96.1084 47.0026 96.1235 46.7459 96.1235 46.4439C96.1386 46.1419 96.1461 45.8248 96.1461 45.4926C96.1461 45.1151 96.131 44.5715 96.1008 43.8618C96.0857 43.1522 96.048 42.4123 95.9876 41.6422C96.6822 41.6573 97.4372 41.6724 98.2526 41.6875C99.0831 41.7026 99.9136 41.7101 100.744 41.7101C101.575 41.7101 102.322 41.7101 102.986 41.7101C103.666 41.7101 104.413 41.7101 105.229 41.7101C106.059 41.7101 106.89 41.7026 107.72 41.6875C108.551 41.6724 109.298 41.6573 109.963 41.6422Z" fill="#FAFAFA"/>
<path d="M88.6267 41.3477C89.5176 41.3477 90.2047 41.4459 90.6879 41.6422C91.1711 41.8234 91.5863 42.0197 91.9336 42.2311C92.1148 42.3368 92.2583 42.4198 92.364 42.4802C92.4848 42.5255 92.598 42.5482 92.7037 42.5482C92.8547 42.5482 92.9604 42.4651 93.0208 42.299C93.0963 42.1329 93.1567 41.8838 93.202 41.5516H93.723C93.7079 41.8385 93.6852 42.1858 93.655 42.5935C93.6399 42.9861 93.6248 43.507 93.6097 44.1563C93.6097 44.8056 93.6097 45.6588 93.6097 46.7157H93.0888C93.0284 45.9306 92.8472 45.168 92.5452 44.4281C92.2432 43.6882 91.8128 43.0842 91.2541 42.6161C90.7105 42.1329 90.0386 41.8913 89.2383 41.8913C88.5135 41.8913 87.917 42.0952 87.4489 42.5029C86.9808 42.9106 86.7468 43.4768 86.7468 44.2016C86.7468 44.8056 86.8978 45.3266 87.1998 45.7645C87.5018 46.1872 87.9397 46.6025 88.5135 47.0102C89.1024 47.4179 89.8121 47.9086 90.6426 48.4824C91.3674 48.9505 92.0167 49.4186 92.5905 49.8867C93.1643 50.3548 93.6248 50.8833 93.9721 51.4722C94.3194 52.0611 94.4931 52.7633 94.4931 53.5787C94.4931 54.5753 94.2288 55.3982 93.7003 56.0475C93.1869 56.6968 92.5074 57.1876 91.6618 57.5198C90.8162 57.8369 89.8876 57.9954 88.8759 57.9954C87.9397 57.9954 87.1922 57.9048 86.6335 57.7236C86.0748 57.5424 85.6067 57.3537 85.2292 57.1574C84.897 56.946 84.6403 56.8403 84.4591 56.8403C84.3081 56.8403 84.1949 56.9233 84.1194 57.0894C84.059 57.2555 84.0061 57.5047 83.9608 57.8369H83.4399C83.4701 57.4745 83.4852 57.0517 83.4852 56.5685C83.5003 56.0853 83.5078 55.4586 83.5078 54.6885C83.5229 53.9033 83.5305 52.9143 83.5305 51.7214H84.0514C84.1118 52.718 84.2779 53.6542 84.5497 54.53C84.8366 55.3907 85.267 56.0853 85.8408 56.6138C86.4297 57.1423 87.2073 57.4065 88.1737 57.4065C88.7022 57.4065 89.1703 57.3159 89.578 57.1347C90.0008 56.9384 90.3406 56.6515 90.5973 56.274C90.854 55.8965 90.9823 55.4284 90.9823 54.8697C90.9823 54.2355 90.8313 53.6844 90.5293 53.2163C90.2424 52.7482 89.8423 52.3103 89.3289 51.9026C88.8306 51.4949 88.2492 51.0796 87.5848 50.6568C86.8751 50.1887 86.2107 49.7206 85.5916 49.2525C84.9725 48.7844 84.4742 48.2484 84.0967 47.6444C83.7343 47.0404 83.5531 46.3231 83.5531 45.4927C83.5531 44.5414 83.7872 43.7637 84.2553 43.1597C84.7385 42.5406 85.3651 42.0876 86.1352 41.8007C86.9204 41.4987 87.7509 41.3477 88.6267 41.3477Z" fill="#FAFAFA"/>
<path d="M33.9746 -1.90735e-06C52.7383 -1.90735e-06 67.9501 15.2109 67.9502 33.9746C67.9502 52.7384 52.7384 67.9502 33.9746 67.9502C15.2109 67.9501 0 52.7383 0 33.9746C0.000140189 15.211 15.211 0.00013829 33.9746 -1.90735e-06ZM48.8379 42.6611C48.7577 42.5565 48.5203 42.5335 48.4443 42.665C44.7569 48.196 33.1685 62.1542 29.9531 64.2353C29.8486 64.3152 29.8351 64.6159 30.0078 64.6562C31.98 65.2726 42.4904 65.6577 47.7148 61.6006C48.4162 61.0559 48.9411 60.3177 49.2451 59.4834C50.9704 54.7476 50.9088 45.7717 48.8379 42.6611ZM6.96973 48.251C6.83942 48.2118 6.69158 48.298 6.76465 48.4619C8.16131 51.5898 13.0851 60.1735 22.0156 62.5342C23.5152 62.9305 25.1214 62.7586 26.4336 61.9316C30.2382 59.5335 34.8567 54.3977 36.7334 50.9316C36.8696 50.68 36.9658 50.2998 36.6797 50.3008C36.6491 50.3009 36.6153 50.303 36.5781 50.3076C27.6871 52.242 10.4935 50.6448 6.96973 48.251ZM49.4453 24.2656C49.1019 24.2552 49.4064 24.7833 49.5801 25.084L49.584 25.0889C52.7912 30.6419 54.0269 54.6727 53.2852 57.9795C53.2813 58.1108 53.404 58.2277 53.5439 58.1191C56.4599 56.0609 65.0931 46.6423 64.3164 36.415C64.2506 35.5487 64.0096 34.6997 63.5635 33.9541C60.6323 29.0563 53.2211 24.6258 49.4453 24.2656ZM34.1064 17.3828C25.0156 17.3829 17.6457 24.752 17.6455 33.8428C17.6455 42.9337 25.0155 50.3036 34.1064 50.3037C43.1974 50.3037 50.5674 42.9338 50.5674 33.8428C50.5672 24.752 43.1973 17.3828 34.1064 17.3828ZM9.16699 16.7969C9.1354 16.6691 8.98545 16.5894 8.87988 16.7324C6.81301 19.5326 1.74168 29.785 4.23828 40.4863C4.51578 41.6756 5.08541 42.7998 6.05078 43.5478C9.99271 46.6021 18.3333 48.6156 22.6016 47.8203C22.9372 47.7371 22.4942 47.3067 22.2451 47.0664C17.6236 42.6089 9.34703 20.1822 9.16699 16.7969ZM39.3809 3.54394C35.0018 2.30889 20.4025 2.79171 14.2617 10.1143C13.5554 10.9565 13.1294 11.9977 13.0459 13.0937C12.6797 17.9008 14.3958 25.949 16.748 29.3242C16.892 29.5308 17.0238 29.8027 17.2725 29.8418C17.576 29.8894 17.6304 29.4773 17.6895 29.1758C18.8943 23.0282 36.7849 5.87901 39.4893 3.81738C39.5771 3.7193 39.5585 3.55062 39.3809 3.54394ZM45.9502 5.63183C41.5576 5.96497 35.3048 14.0409 34.0303 16.0967C33.8829 16.3345 33.7261 16.7214 33.999 16.7822C34.0249 16.7879 34.0535 16.7897 34.084 16.7871C39.7809 16.2991 61.4606 26.0909 63.9512 28.5322C64.0608 28.605 64.2258 28.5623 64.207 28.3857C63.8245 24.8027 60.1747 10.5608 47.4785 5.91894C46.9874 5.73939 46.4716 5.59232 45.9502 5.63183Z" fill="#FAFAFA"/>
<path d="M34.1061 18.6191C42.5253 18.6191 49.3307 25.3878 49.3307 33.7119C49.3305 42.0358 42.5252 48.8037 34.1061 48.8037C25.6872 48.8035 18.8827 42.0357 18.8825 33.7119C18.8825 25.3879 25.6871 18.6193 34.1061 18.6191Z" stroke="#FAFAFA" stroke-width="3"/>
</svg>
