<svg width="56" height="37" viewBox="0 0 56 37" fill="none" xmlns="http://www.w3.org/2000/svg">
<path d="M0.749999 18.4092C0.748316 18.314 0.762103 18.219 0.791015 18.1279C0.829672 18.0064 0.894297 17.8938 0.980468 17.7998C1.06658 17.7059 1.17244 17.6321 1.29004 17.583C1.40465 17.5352 1.5283 17.5132 1.65234 17.5166L52.459 17.5156L38.6777 2.01465C38.597 1.93314 38.5329 1.8367 38.4893 1.73047C38.4431 1.61802 38.4208 1.49647 38.4238 1.375C38.4268 1.25374 38.4544 1.13428 38.5059 1.02441C38.5574 0.914535 38.6314 0.816287 38.7227 0.736326C38.814 0.656415 38.9214 0.596092 39.0371 0.559569C39.153 0.523076 39.2757 0.510281 39.3965 0.523436C39.5172 0.536597 39.634 0.575167 39.7393 0.63574C39.838 0.69258 39.9243 0.768545 39.9941 0.858397L55.0674 17.8154L55.0693 17.8174C55.2083 17.9772 55.2842 18.1828 55.2842 18.3945C55.2841 18.6061 55.2082 18.811 55.0693 18.9707L55.0674 18.9727L39.9941 35.9297L39.9932 35.9297C39.8819 36.0647 39.7334 36.1641 39.5654 36.2139C39.393 36.2649 39.2086 36.2619 39.0381 36.2051C38.8677 36.1482 38.7186 36.0406 38.6113 35.8965C38.504 35.7523 38.4439 35.5781 38.4385 35.3984L38.4385 35.3965C38.4358 35.2803 38.4567 35.1649 38.499 35.0566C38.54 34.9519 38.6007 34.8562 38.6777 34.7744L38.6777 34.7734L52.459 19.2725L1.65234 19.2725L1.65234 19.2715C1.43633 19.2774 1.22558 19.2043 1.06055 19.0645C0.892954 18.9223 0.784223 18.722 0.756835 18.5039L0.749999 18.4092Z" fill="#FAFAFA" stroke="#FAFAFA" stroke-width="0.5"/>
</svg>
